# xmcd
#
# Track frame offsets:
# 150
# 18331
# 36274
# 49220
# 59940
# 67967
# 84214
# 100491
# 111869
# 123246
# 140449
# 158154
# 175904
# 197890
# 219760
# 228716
# 237174
# 245456
#
# Disc length: 3391 seconds
#
# Revision: 0
# Processed by: cddbd v1.4PL0 Copyright (c) Steve Scherf et al.
# Submitted via: Audion 3.0.2 (http://www.panic.com/audion/)
#
DISCID=fd0d3d12
DTITLE=Frederick Moore - EarlyCalif-1977-80
DYEAR=1900
DGENRE=
TTITLE0=ALittleLove-EQ(Cas)
TTITLE1=ALittleLove
TTITLE2=BrighterDays-Treated(Cas)
TTITLE3=Hometown-(Cas)
TTITLE4=Inside-(Cas)
TTITLE5=NowIsTheTime-EQ-(Cas)
TTITLE6=NowIsTheTime
TTITLE7=Pool of Love
TTITLE8=Pool of Love-FX-Cas
TTITLE9=Sayrah 2 (Cas) Mono
TTITLE10=Sayrah (Cas)
TTITLE11=Sayrah-EQ
TTITLE12=SiliconeVersion-EQ
TTITLE13=SiliconeVersion
TTITLE14=WaitForMe-LateForDinnerBand
TTITLE15=WaitForMe-Studio
TTITLE16=WaitForMe-StudioFX
TTITLE17=WaitForMe-LateForDinnerBandFX
EXTD=
EXTT0=
EXTT1=
EXTT2=
EXTT3=
EXTT4=
EXTT5=
EXTT6=
EXTT7=
EXTT8=
EXTT9=
EXTT10=
EXTT11=
EXTT12=
EXTT13=
EXTT14=
EXTT15=
EXTT16=
EXTT17=
PLAYORDER=
